<svg width="1920" height="1080" viewBox="0 0 1920 1080" fill="none" xmlns="http://www.w3.org/2000/svg">
<g clip-path="url(#clip0_1_261)">
<rect width="1920" height="1080" fill="#FAFAFA"/>
<g filter="url(#filter0_f_1_261)">
<path d="M982 408L1054.16 673.323C1093 816.115 1183.23 939.518 1307.53 1019.82L1622 1223L982 1063.8L342 1223L656.475 1019.82C780.768 939.518 871.002 816.115 909.838 673.323L982 408Z" fill="#25AF91" fill-opacity="0.5"/>
</g>
<g opacity="0.4" filter="url(#filter1_f_1_261)">
<path d="M982.5 160L1044.33 490.947C1067.71 616.1 1130.29 730.573 1223.03 817.805L1455 1036L982.5 864.888L510 1036L741.968 817.805C834.708 730.573 897.294 616.101 920.675 490.947L982.5 160Z" fill="#25AF91" fill-opacity="0.5"/>
</g>
<g filter="url(#filter2_f_1_261)">
<ellipse cx="982.5" cy="1098.5" rx="361.5" ry="273.5" fill="#25AF91"/>
</g>
<g filter="url(#filter3_f_1_261)">
<path d="M982.102 914.427C1353.9 914.427 1676.59 970.362 1837.7 1052.32C1666.93 975.601 1347.72 923.984 982.103 923.984C616.486 923.984 297.269 975.601 126.501 1052.32C287.61 970.361 610.297 914.427 982.102 914.427Z" fill="#25AF91"/>
</g>
<g filter="url(#filter4_f_1_261)">
<path d="M1838 1052C1667.15 975.722 1347.79 924.402 982.001 924.402C616.214 924.402 296.847 975.723 126 1052C287.184 970.513 610.022 892 982.001 892C1353.98 892 1676.82 970.512 1838 1052Z" fill="#25AF91"/>
</g>
<path d="M1969.8 1088.08C1969.8 1139.02 2131.94 1267.09 1914.96 1297.37C1743.59 1321.29 1169.34 1297.37 928.635 1297.37C712.087 1297.37 252.199 1306.58 89.4073 1286.83C-157.878 1256.83 -11.6272 1150.4 -5.59558 1088.08C-5.59558 996.907 436.612 923 982.103 923C1527.59 923 1969.8 996.907 1969.8 1088.08Z" fill="#FAFAFA"/>
</g>
<defs>
<filter id="filter0_f_1_261" x="142" y="208" width="1680" height="1215" filterUnits="userSpaceOnUse" color-interpolation-filters="sRGB">
<feFlood flood-opacity="0" result="BackgroundImageFix"/>
<feBlend mode="normal" in="SourceGraphic" in2="BackgroundImageFix" result="shape"/>
<feGaussianBlur stdDeviation="100" result="effect1_foregroundBlur_1_261"/>
</filter>
<filter id="filter1_f_1_261" x="310" y="-40" width="1345" height="1276" filterUnits="userSpaceOnUse" color-interpolation-filters="sRGB">
<feFlood flood-opacity="0" result="BackgroundImageFix"/>
<feBlend mode="normal" in="SourceGraphic" in2="BackgroundImageFix" result="shape"/>
<feGaussianBlur stdDeviation="100" result="effect1_foregroundBlur_1_261"/>
</filter>
<filter id="filter2_f_1_261" x="390.3" y="594.3" width="1184.4" height="1008.4" filterUnits="userSpaceOnUse" color-interpolation-filters="sRGB">
<feFlood flood-opacity="0" result="BackgroundImageFix"/>
<feBlend mode="normal" in="SourceGraphic" in2="BackgroundImageFix" result="shape"/>
<feGaussianBlur stdDeviation="115.35" result="effect1_foregroundBlur_1_261"/>
</filter>
<filter id="filter3_f_1_261" x="118.201" y="906.127" width="1727.8" height="154.49" filterUnits="userSpaceOnUse" color-interpolation-filters="sRGB">
<feFlood flood-opacity="0" result="BackgroundImageFix"/>
<feBlend mode="normal" in="SourceGraphic" in2="BackgroundImageFix" result="shape"/>
<feGaussianBlur stdDeviation="4.15" result="effect1_foregroundBlur_1_261"/>
</filter>
<filter id="filter4_f_1_261" x="61.6" y="827.6" width="1840.8" height="288.8" filterUnits="userSpaceOnUse" color-interpolation-filters="sRGB">
<feFlood flood-opacity="0" result="BackgroundImageFix"/>
<feBlend mode="normal" in="SourceGraphic" in2="BackgroundImageFix" result="shape"/>
<feGaussianBlur stdDeviation="32.2" result="effect1_foregroundBlur_1_261"/>
</filter>
<clipPath id="clip0_1_261">
<rect width="1920" height="1080" fill="white"/>
</clipPath>
</defs>
</svg>
